<svg xmlns="http://www.w3.org/2000/svg" version="1.1" xmlns:xlink="http://www.w3.org/1999/xlink" xmlns:svgjs="http://svgjs.dev/svgjs" width="1500" height="189" viewBox="0 0 1500 189"><g transform="matrix(1,0,0,1,-0.9090909090909918,-0.5984164475589324)"><svg viewBox="0 0 396 50" data-background-color="#ffffff" preserveAspectRatio="xMidYMid meet" height="189" width="1500" xmlns="http://www.w3.org/2000/svg" xmlns:xlink="http://www.w3.org/1999/xlink"><g id="tight-bounds" transform="matrix(1,0,0,1,0.2400000000000091,0.15831122951294674)"><svg viewBox="0 0 395.52 49.683377540974114" height="49.683377540974114" width="395.52"><g><svg viewBox="0 0 395.52 49.683377540974114" height="49.683377540974114" width="395.52"><g><svg viewBox="0 0 395.52 49.683377540974114" height="49.683377540974114" width="395.52"><g id="textblocktransform"><svg viewBox="0 0 395.52 49.683377540974114" height="49.683377540974114" width="395.52" id="textblock"><g><svg viewBox="0 0 395.52 49.683377540974114" height="49.683377540974114" width="395.52"><g transform="matrix(1,0,0,1,0,0)"><svg width="395.52" viewBox="2.51 -39.84 421.52 52.95" height="49.683377540974114" data-palette-color="#000000"><path d="M20.73-17.16L20.75-17.53Q20.51-18.09 20.08-18.68 19.65-19.26 19.09-19.75 18.53-20.24 17.87-20.54 17.21-20.85 16.48-20.85L16.48-20.85Q15.48-20.85 14.6-20.02 13.72-19.19 13.06-17.81 12.4-16.43 12.02-14.66 11.65-12.89 11.65-10.99L11.65-10.99Q11.65-9.81 11.85-8.78 12.06-7.74 12.5-6.96 12.94-6.18 13.64-5.71 14.33-5.25 15.31-5.25L15.31-5.25Q16.77-5.25 17.99-6.16 19.21-7.08 20.07-8.54L20.07-8.54Q20.09-9.06 20.14-9.77 20.19-10.47 20.26-11.49 20.34-12.5 20.45-13.88 20.56-15.26 20.73-17.16L20.73-17.16ZM30.08-27.2L30.08-27.2Q30.37-27.27 30.62-27.27L30.62-27.27Q31.37-27.27 31.37-26.32L31.37-26.32Q31.37-26.2 31.37-26.09 31.37-25.98 31.35-25.83L31.35-25.83 28.2 8.01Q28.17 8.08 28.17 8.28L28.17 8.28Q28.17 8.37 28.19 8.45 28.2 8.52 28.2 8.57L28.2 8.57Q28.2 8.79 28.04 8.92 27.88 9.06 27.22 9.23L27.22 9.23 20.75 11.6Q20.48 11.67 20.04 11.83 19.6 11.99 19.19 11.99L19.19 11.99Q18.85 11.99 18.58 11.84 18.31 11.69 18.31 11.3L18.31 11.3Q18.31 11.16 18.33 11.08L18.33 11.08Q18.36 10.99 18.41 10.41 18.46 9.84 18.53 8.97 18.6 8.11 18.7 7.02 18.8 5.93 18.88 4.8 18.97 3.66 19.07 2.58 19.17 1.49 19.24 0.62 19.31-0.24 19.36-0.82 19.41-1.39 19.43-1.49L19.43-1.49Q17.68-0.32 15.87 0.48 14.06 1.27 12.23 1.27L12.23 1.27Q9.72 1.27 7.89 0.24 6.05-0.78 4.86-2.5 3.66-4.22 3.09-6.46 2.51-8.69 2.51-11.11L2.51-11.11Q2.51-13.04 2.87-14.98 3.22-16.92 3.92-18.71 4.61-20.51 5.64-22.07 6.67-23.63 8.01-24.78 9.35-25.93 10.99-26.59 12.62-27.25 14.55-27.25L14.55-27.25Q16.7-27.25 18.46-26.39 20.21-25.54 21.7-24.15L21.7-24.15Q21.75-24.58 21.78-24.84 21.8-25.1 21.9-25.24 22-25.39 22.23-25.46 22.46-25.54 22.9-25.63L22.9-25.63Q23.17-25.68 23.88-25.84 24.58-26 25.56-26.22 26.54-26.44 27.71-26.68 28.88-26.93 30.08-27.2ZM46.7 0L38.03 0Q37.55 0 37-0.05 36.45-0.1 36-0.23 35.54-0.37 35.24-0.59 34.93-0.81 34.93-1.17L34.93-1.17Q34.93-1.2 34.96-1.25 34.98-1.29 34.98-1.34L34.98-1.34 43.6-19.02Q42.58-19.02 41.31-18.98 40.04-18.95 38.75-18.91 37.47-18.87 36.31-18.85 35.15-18.82 34.35-18.82L34.35-18.82Q34.1-18.82 33.98-18.98 33.86-19.14 33.86-19.34L33.86-19.34 33.86-19.43 36.33-25.32Q36.52-25.98 37.06-26.17 37.6-26.37 38.13-26.37L38.13-26.37Q42.43-26.37 46.57-26.22 50.71-26.07 54.98-26.07L54.98-26.07Q55.25-26.07 55.53-25.9 55.81-25.73 55.81-25.49L55.81-25.49Q55.81-25.46 55.76-25.32L55.76-25.32 48.02-8.42Q48.02-8.37 48.15-8.35 48.29-8.33 48.5-8.3 48.7-8.28 48.91-8.28 49.12-8.28 49.27-8.28L49.27-8.28Q50.8-8.28 52.24-8.35 53.68-8.42 55.15-8.42L55.15-8.42Q55.42-8.42 55.61-8.3 55.81-8.18 55.81-7.81L55.81-7.81Q55.81-7.76 55.76-7.76L55.76-7.76 52.68-1.34Q52.46-0.88 51.9-0.61 51.34-0.34 50.53-0.21 49.73-0.07 48.74-0.04 47.75 0 46.7 0L46.7 0ZM59.13-0.07L58.81-6.74Q58.81-6.76 58.8-6.77 58.78-6.79 58.78-6.81L58.78-6.81Q58.78-7.13 59.13-7.13L59.13-7.13Q59.35-7.13 59.52-6.96L59.52-6.96Q60.49-6.03 61.75-5.44 63.01-4.86 64.47-4.86L64.47-4.86Q64.86-4.86 65.38-4.94 65.89-5.03 66.35-5.22 66.82-5.42 67.12-5.75 67.43-6.08 67.43-6.57L67.43-6.57Q67.43-7.1 67.16-7.56 66.89-8.01 66.45-8.3L66.45-8.3Q66.21-8.47 65.6-8.9 64.99-9.33 64.29-9.81 63.59-10.3 62.97-10.74 62.35-11.18 62.1-11.38L62.1-11.38Q61.01-12.21 60.36-13.06 59.71-13.92 59.37-14.83 59.03-15.75 58.93-16.75 58.83-17.75 58.83-18.87L58.83-18.87Q58.83-20.58 59.74-22.09 60.64-23.61 62.12-24.76 63.59-25.9 65.47-26.57 67.35-27.25 69.31-27.25L69.31-27.25Q70.92-27.25 72.48-26.76 74.04-26.27 75.39-25.1L75.39-25.1Q75.51-23.56 75.56-22.07 75.61-20.58 75.7-18.95L75.7-18.95Q75.7-18.63 75.56-18.52 75.41-18.41 75.21-18.41L75.21-18.41Q75.04-18.41 74.92-18.53L74.92-18.53Q74.36-19.07 73.77-19.59 73.19-20.12 72.54-20.52 71.89-20.92 71.16-21.18 70.43-21.44 69.6-21.44L69.6-21.44Q69.09-21.44 68.57-21.35 68.06-21.26 67.65-21.03 67.23-20.8 66.97-20.41 66.72-20.02 66.72-19.41L66.72-19.41Q66.72-18.7 66.89-18.19 67.06-17.68 67.7-17.19L67.7-17.19 72.24-14.11Q73.48-13.26 74.25-12.44 75.02-11.62 75.46-10.82 75.9-10.01 76.06-9.22 76.22-8.42 76.22-7.64L76.22-7.64Q76.22-5.44 75.2-3.77 74.19-2.1 72.58-0.99 70.97 0.12 68.93 0.7 66.89 1.27 64.84 1.27L64.84 1.27Q63.28 1.27 61.82 0.94 60.37 0.61 59.13-0.07L59.13-0.07ZM94.26-27.25L94.26-27.25Q96.57-27.25 98.47-26.38 100.36-25.51 101.71-24.13 103.07-22.75 103.8-21.04 104.53-19.34 104.53-17.63L104.53-17.63Q104.53-16.11 103.61-14.59 102.68-13.06 101.01-11.84 99.33-10.62 96.99-9.86 94.65-9.11 91.84-9.11L91.84-9.11Q90.37-9.11 88.76-9.4L88.76-9.4Q88.86-8.35 89.37-7.59 89.89-6.84 90.67-6.35 91.45-5.86 92.44-5.63 93.43-5.4 94.47-5.4L94.47-5.4Q95.65-5.4 96.73-5.6 97.82-5.81 98.82-6.15 99.82-6.49 100.75-6.91 101.68-7.32 102.51-7.74L102.51-7.74Q102.73-7.79 102.89-7.82 103.04-7.86 103.19-7.86L103.19-7.86Q103.19-7.86 103.18-7.47 103.17-7.08 103.17-6.37 103.17-5.66 103.15-4.66 103.14-3.66 103.12-2.44L103.12-2.44Q103.19-2.32 103.22-2.2 103.24-2.08 103.24-2L103.24-2Q103.24-1.71 102.7-1.37 102.17-1.03 101.3-0.66 100.43-0.29 99.32 0.05 98.21 0.39 97.06 0.67 95.92 0.95 94.84 1.11 93.77 1.27 92.96 1.27L92.96 1.27Q90.32 1.27 87.85 0.35 85.37-0.56 83.45-2.27 81.54-3.98 80.39-6.42 79.24-8.86 79.24-11.91L79.24-11.91Q79.24-15.11 80.34-17.91 81.44-20.7 83.43-22.78 85.42-24.85 88.18-26.05 90.93-27.25 94.26-27.25ZM93.96-20.75L93.96-20.75Q92.96-20.75 92.12-20.32 91.28-19.9 90.58-19.1 89.89-18.31 89.37-17.2 88.86-16.09 88.54-14.75L88.54-14.75Q91.06-15.19 92.72-15.67 94.38-16.16 95.38-16.66 96.38-17.16 96.79-17.66 97.21-18.16 97.21-18.63L97.21-18.63Q97.21-19.07 96.88-19.46 96.55-19.85 96.06-20.14 95.57-20.43 95-20.59 94.43-20.75 93.96-20.75ZM122.13-27.25L122.13-27.25Q124.45-27.25 126.34-26.38 128.24-25.51 129.59-24.13 130.95-22.75 131.68-21.04 132.41-19.34 132.41-17.63L132.41-17.63Q132.41-16.11 131.48-14.59 130.56-13.06 128.88-11.84 127.21-10.62 124.87-9.86 122.52-9.11 119.72-9.11L119.72-9.11Q118.25-9.11 116.64-9.4L116.64-9.4Q116.74-8.35 117.25-7.59 117.76-6.84 118.54-6.35 119.33-5.86 120.31-5.63 121.3-5.4 122.35-5.4L122.35-5.4Q123.53-5.4 124.61-5.6 125.7-5.81 126.7-6.15 127.7-6.49 128.63-6.91 129.56-7.32 130.39-7.74L130.39-7.74Q130.61-7.79 130.76-7.82 130.92-7.86 131.07-7.86L131.07-7.86Q131.07-7.86 131.06-7.47 131.04-7.08 131.04-6.37 131.04-5.66 131.03-4.66 131.02-3.66 131-2.44L131-2.44Q131.07-2.32 131.09-2.2 131.12-2.08 131.12-2L131.12-2Q131.12-1.71 130.58-1.37 130.04-1.03 129.18-0.66 128.31-0.29 127.2 0.05 126.09 0.39 124.94 0.67 123.79 0.95 122.72 1.11 121.65 1.27 120.84 1.27L120.84 1.27Q118.2 1.27 115.72 0.35 113.25-0.56 111.33-2.27 109.41-3.98 108.27-6.42 107.12-8.86 107.12-11.91L107.12-11.91Q107.12-15.11 108.22-17.91 109.32-20.7 111.31-22.78 113.3-24.85 116.05-26.05 118.81-27.25 122.13-27.25ZM121.84-20.75L121.84-20.75Q120.84-20.75 120-20.32 119.16-19.9 118.46-19.1 117.76-18.31 117.25-17.2 116.74-16.09 116.42-14.75L116.42-14.75Q118.94-15.19 120.6-15.67 122.26-16.16 123.26-16.66 124.26-17.16 124.67-17.66 125.09-18.16 125.09-18.63L125.09-18.63Q125.09-19.07 124.76-19.46 124.43-19.85 123.94-20.14 123.45-20.43 122.88-20.59 122.3-20.75 121.84-20.75ZM148.62-37.06L148.62-37.06 147.74-28.59Q147.57-26.88 147.39-25.12 147.2-23.36 147.03-21.75 146.86-20.14 146.72-18.77 146.57-17.41 146.47-16.53L146.47-16.53 148.16-18.38 150.89-21.58Q151.4-22.17 151.89-22.75 152.38-23.34 152.77-23.79 153.16-24.24 153.41-24.55 153.65-24.85 153.7-24.9L153.7-24.9 163.51-25.59Q163.59-25.61 163.67-25.61 163.76-25.61 163.83-25.61L163.83-25.61Q164.25-25.61 164.25-25.39L164.25-25.39Q164.25-25.22 163.73-24.63L163.73-24.63 156.09-16.09Q155.58-15.53 154.88-14.78 154.19-14.04 153.33-13.13L153.33-13.13 156.9-8.89 163.05-2.27Q163.12-2.15 163.27-2.09 163.42-2.03 163.55-1.98 163.68-1.93 163.79-1.87 163.9-1.81 163.9-1.68L163.9-1.68Q163.9-1.59 163.87-1.54 163.83-1.49 163.63-1.34L163.63-1.34Q163.42-1.17 162.87-0.85 162.32-0.54 161.58-0.15 160.85 0.24 160.02 0.65 159.19 1.05 158.41 1.38 157.63 1.71 156.97 1.92 156.31 2.12 155.94 2.12L155.94 2.12Q155.65 2.12 155.37 1.98 155.09 1.83 154.75 1.44L154.75 1.44Q154.28 0.9 153.59 0.04 152.89-0.83 152.09-1.87 151.28-2.91 150.44-4.02 149.6-5.13 148.83-6.14 148.06-7.15 147.44-7.97 146.81-8.79 146.47-9.28L146.47-9.28Q146.35-9.16 146.23-9.09 146.11-9.03 146-8.94 145.89-8.84 145.81-8.7 145.74-8.57 145.74-8.33L145.74-8.33Q145.74-8.23 145.69-7.78 145.64-7.32 145.58-6.7 145.52-6.08 145.45-5.37 145.37-4.66 145.31-4.04 145.25-3.42 145.2-2.97 145.15-2.51 145.15-2.42L145.15-2.42Q145.15-2.25 145.17-2.14 145.18-2.03 145.18-1.93L145.18-1.93Q145.18-1.66 144.99-1.53 144.81-1.39 144.1-1.2L144.1-1.2 137.71 0.88Q137.44 0.98 137 1.12 136.56 1.27 136.14 1.27L136.14 1.27Q135.8 1.27 135.55 1.1 135.29 0.93 135.29 0.46L135.29 0.46 138.37-34.72Q138.37-34.84 138.34-34.95 138.32-35.06 138.32-35.18L138.32-35.18Q138.32-35.4 138.5-35.58 138.68-35.77 139.34-35.94L139.34-35.94 146.2-37.57Q146.47-37.62 146.91-37.79 147.35-37.96 147.77-37.96L147.77-37.96Q148.08-37.96 148.36-37.82 148.64-37.67 148.64-37.26L148.64-37.26Q148.64-37.21 148.63-37.16 148.62-37.11 148.62-37.06ZM179.16-27.25L179.16-27.25Q181.48-27.25 183.37-26.38 185.26-25.51 186.62-24.13 187.97-22.75 188.71-21.04 189.44-19.34 189.44-17.63L189.44-17.63Q189.44-16.11 188.51-14.59 187.58-13.06 185.91-11.84 184.24-10.62 181.89-9.86 179.55-9.11 176.74-9.11L176.74-9.11Q175.28-9.11 173.67-9.4L173.67-9.4Q173.76-8.35 174.28-7.59 174.79-6.84 175.57-6.35 176.35-5.86 177.34-5.63 178.33-5.4 179.38-5.4L179.38-5.4Q180.55-5.4 181.64-5.6 182.72-5.81 183.73-6.15 184.73-6.49 185.65-6.91 186.58-7.32 187.41-7.74L187.41-7.74Q187.63-7.79 187.79-7.82 187.95-7.86 188.1-7.86L188.1-7.86Q188.1-7.86 188.08-7.47 188.07-7.08 188.07-6.37 188.07-5.66 188.06-4.66 188.05-3.66 188.02-2.44L188.02-2.44Q188.1-2.32 188.12-2.2 188.14-2.08 188.14-2L188.14-2Q188.14-1.71 187.61-1.37 187.07-1.03 186.2-0.66 185.34-0.29 184.23 0.05 183.11 0.39 181.97 0.67 180.82 0.95 179.75 1.11 178.67 1.27 177.87 1.27L177.87 1.27Q175.23 1.27 172.75 0.35 170.27-0.56 168.36-2.27 166.44-3.98 165.29-6.42 164.15-8.86 164.15-11.91L164.15-11.91Q164.15-15.11 165.24-17.91 166.34-20.7 168.33-22.78 170.32-24.85 173.08-26.05 175.84-27.25 179.16-27.25ZM178.87-20.75L178.87-20.75Q177.87-20.75 177.02-20.32 176.18-19.9 175.49-19.1 174.79-18.31 174.28-17.2 173.76-16.09 173.45-14.75L173.45-14.75Q175.96-15.19 177.62-15.67 179.28-16.16 180.28-16.66 181.28-17.16 181.7-17.66 182.11-18.16 182.11-18.63L182.11-18.63Q182.11-19.07 181.78-19.46 181.45-19.85 180.97-20.14 180.48-20.43 179.9-20.59 179.33-20.75 178.87-20.75ZM213.97-27.44L212.46-19.87Q211.95-19.92 211.31-19.98 210.68-20.04 209.97-20.04L209.97-20.04Q208.89-20.04 207.78-19.86 206.67-19.68 205.72-19.14 204.77-18.6 204.08-17.66 203.4-16.72 203.21-15.23L203.21-15.23Q203.03-13.43 202.92-12.27 202.81-11.11 202.77-10.36 202.72-9.62 202.68-9.17 202.64-8.72 202.62-8.33L202.62-8.33Q202.62-8.23 202.58-7.79 202.55-7.35 202.47-6.76 202.4-6.18 202.34-5.49 202.28-4.81 202.2-4.22 202.13-3.64 202.09-3.2 202.06-2.76 202.06-2.66L202.06-2.66Q202.06-2.47 202.07-2.33 202.08-2.2 202.08-2.08L202.08-2.08Q202.08-1.88 201.9-1.75 201.72-1.61 201.08-1.44L201.08-1.44 194.61 0.88Q194.34 0.98 193.9 1.12 193.46 1.27 193.05 1.27L193.05 1.27Q192.71 1.27 192.45 1.1 192.19 0.93 192.19 0.51L192.19 0.51 194.29-23.68Q194.37-24.49 194.48-24.79 194.59-25.1 195.03-25.2L195.03-25.2Q197.25-25.63 199.62-26.09 201.98-26.54 204.21-27.25L204.21-27.25Q204.4-27.25 204.44-27.19 204.47-27.12 204.47-27L204.47-27Q204.47-26.95 204.46-26.86 204.45-26.76 204.39-26.42 204.33-26.07 204.22-25.38 204.11-24.68 203.91-23.44L203.91-23.44Q205.04-24.32 206.39-25.05 207.75-25.78 209.11-26.31 210.48-26.83 211.75-27.14 213.02-27.44 213.97-27.44L213.97-27.44ZM214.7-16.5L214.7-16.5Q214.7-19.19 215.35-21.67 216-24.15 217.19-26.29 218.39-28.44 220.08-30.2 221.78-31.96 223.88-33.22 225.98-34.47 228.43-35.16 230.89-35.84 233.6-35.84L233.6-35.84Q235.75-35.84 237.37-35.56 238.99-35.28 240.2-34.85 241.41-34.42 242.23-33.91 243.05-33.4 243.58-32.93L243.58-32.93Q243.56-32.93 243.56-32.76L243.56-32.76Q243.56-32.4 243.62-31.42 243.68-30.44 243.77-29.25 243.85-28.05 243.91-26.82 243.97-25.59 243.97-24.68L243.97-24.68Q243.97-24.54 243.88-24.35 243.78-24.17 243.39-24.17L243.39-24.17Q243.17-24.17 242.85-24.24L242.85-24.24Q242.34-24.39 241.56-24.91 240.78-25.44 239.74-26.01 238.7-26.59 237.42-27.04 236.14-27.49 234.62-27.49L234.62-27.49Q232.62-27.49 230.99-26.7 229.35-25.9 228.2-24.51 227.06-23.12 226.42-21.2 225.79-19.29 225.79-17.02L225.79-17.02Q225.79-15.01 226.23-13.2 226.66-11.38 227.56-10.01 228.45-8.64 229.78-7.82 231.11-7.01 232.87-7.01L232.87-7.01Q234.26-7.01 235.33-7.1 236.41-7.2 237.33-7.42 238.26-7.64 239.15-8.01 240.04-8.37 241.07-8.94L241.07-8.94Q241.12-8.96 241.31-8.96L241.31-8.96Q241.48-8.96 241.54-8.83 241.61-8.69 241.61-8.28L241.61-8.28 241.61-5.35Q241.61-4.54 241.59-3.77 241.58-3 241.57-2.39 241.56-1.78 241.54-1.4 241.53-1.03 241.51-1.03L241.51-1.03Q240.39-0.32 239.1 0.13 237.82 0.59 236.47 0.84 235.11 1.1 233.74 1.18 232.38 1.27 231.11 1.27L231.11 1.27Q227.67 1.27 224.66-0.04 221.66-1.34 219.45-3.69 217.24-6.03 215.97-9.3 214.7-12.57 214.7-16.5ZM247.83-20.65L247.83-20.65Q248.12-24 248.31-27.27 248.49-30.54 248.71-33.98L248.71-33.98Q248.76-34.79 248.87-35.1 248.98-35.4 249.42-35.5L249.42-35.5Q251.69-35.91 253.97-36.34 256.25-36.77 258.55-37.48L258.55-37.48Q258.62-37.5 258.77-37.5L258.77-37.5Q259.04-37.5 259.04-37.26L259.04-37.26 255.86-2.39 255.86-1.98Q255.86-1.76 255.69-1.62 255.52-1.49 254.88-1.32L254.88-1.32 248.49 1.03Q248.22 1.15 247.78 1.28 247.34 1.42 246.93 1.42L246.93 1.42Q246.58 1.42 246.33 1.25 246.07 1.07 246.07 0.66L246.07 0.66 246.07 0.51Q246.27-1.95 246.45-4.31 246.63-6.67 246.84-9.18 247.05-11.69 247.29-14.5 247.54-17.31 247.83-20.65ZM274.76 1.27L274.76 1.27Q271.31 1.27 268.71 0.15 266.11-0.98 264.35-2.84 262.6-4.71 261.72-7.14 260.84-9.57 260.84-12.18L260.84-12.18Q260.84-14.79 261.69-17.15 262.55-19.51 264.09-21.37 265.62-23.24 267.77-24.5 269.92-25.76 272.51-26.2L272.51-26.2Q272.9-26.22 272.9-26.37L272.9-26.37Q272.9-26.64 272.84-26.87 272.78-27.1 272.78-27.27L272.78-27.27Q272.78-27.54 272.88-27.64 272.97-27.73 273.1-27.73L273.1-27.73Q277.76-27.73 281.03-26.67 284.3-25.61 286.35-23.78 288.4-21.95 289.33-19.46 290.26-16.97 290.26-14.11L290.26-14.11Q290.26-10.47 289.04-7.62 287.82-4.76 285.7-2.78 283.59-0.81 280.77 0.23 277.95 1.27 274.76 1.27ZM270.24-12.45L270.24-12.45Q270.24-11.13 270.52-9.84 270.8-8.54 271.45-7.5 272.09-6.45 273.14-5.8 274.19-5.15 275.76-5.15L275.76-5.15Q276.88-5.2 277.72-5.65 278.56-6.1 279.17-6.82 279.78-7.54 280.19-8.45 280.59-9.35 280.82-10.31 281.05-11.28 281.15-12.21 281.25-13.13 281.25-13.89L281.25-13.89Q281.25-15.16 280.87-16.38 280.49-17.6 279.76-18.53 279.03-19.46 277.94-20.03 276.85-20.61 275.44-20.61L275.44-20.61Q273.97-20.61 272.97-19.74 271.97-18.87 271.37-17.6 270.78-16.33 270.51-14.93 270.24-13.53 270.24-12.45ZM310.89-18.82L306.34-18.82Q306-16.26 305.7-13.71 305.39-11.16 305.32-8.94L305.32-8.94Q305.32-7.98 305.47-7.35 305.61-6.71 305.89-6.35 306.17-5.98 306.56-5.82 306.95-5.66 307.44-5.66L307.44-5.66Q308.22-5.66 309.15-5.9 310.08-6.13 311.01-6.49L311.01-6.49Q311.3-6.62 311.51-6.68 311.72-6.74 311.86-6.74L311.86-6.74Q312.11-6.74 312.19-6.52 312.28-6.3 312.36-5.75 312.45-5.2 312.62-4.27 312.79-3.34 313.18-1.93L313.18-1.93Q313.2-1.81 313.22-1.72 313.23-1.64 313.23-1.56L313.23-1.56Q313.23-1.22 312.97-1.07 312.72-0.93 312.13-0.73L312.13-0.73Q311.13-0.39 310.02-0.04 308.91 0.32 307.82 0.61 306.74 0.9 305.73 1.09 304.73 1.27 303.98 1.27L303.98 1.27Q299.9 1.27 298.03-0.76 296.16-2.78 296.16-6.93L296.16-6.93Q296.16-7.64 296.21-8.39 296.26-9.13 296.33-9.94L296.33-9.94Q296.58-12.38 296.76-14.56 296.95-16.75 297.14-18.75L297.14-18.75 294.58-18.75Q293.26-18.75 292.67-18.86 292.09-18.97 292.09-19.31L292.09-19.31Q292.09-19.41 292.33-19.84 292.58-20.26 292.95-20.86 293.33-21.46 293.77-22.14 294.21-22.83 294.61-23.43 295.02-24.02 295.31-24.46 295.6-24.9 295.68-25L295.68-25 297.41-25Q297.63-26.86 297.76-28.11 297.9-29.37 297.98-30.2 298.07-31.03 298.14-31.48 298.21-31.93 298.3-32.15 298.39-32.37 298.52-32.43 298.65-32.5 298.87-32.54L298.87-32.54Q299.97-32.76 301-32.95 302.02-33.13 303.05-33.33 304.07-33.52 305.14-33.78 306.2-34.03 307.35-34.38L307.35-34.38Q307.42-34.38 307.44-34.39 307.47-34.4 307.54-34.4L307.54-34.4Q307.83-34.4 307.83-34.2L307.83-34.2 307.83-34.16Q307.71-32.81 307.46-30.42 307.2-28.03 306.88-25L306.88-25 313.42-25Q313.62-25 313.8-24.87 313.99-24.73 313.99-24.41L313.99-24.41Q313.99-24.29 313.69-23.54 313.4-22.78 312.86-21.56L312.86-21.56 311.98-19.58Q311.81-19.21 311.63-19.04 311.45-18.87 310.89-18.82L310.89-18.82ZM315.99 0.37L318.77-35.5Q318.77-35.64 318.76-35.77 318.74-35.89 318.74-36.01L318.74-36.01Q318.74-36.23 318.92-36.39 319.09-36.55 319.75-36.72L319.75-36.72 326.61-38.35Q326.87-38.4 327.31-38.57 327.75-38.75 328.17-38.75L328.17-38.75Q329.02-38.75 329.02-37.96L329.02-37.96Q329.02-37.92 328.95-36.96 328.88-36.01 328.75-34.59 328.63-33.18 328.49-31.51 328.34-29.83 328.19-28.32 328.05-26.81 327.92-25.67 327.8-24.54 327.73-24.19L327.73-24.19Q328.88-24.83 330.12-25.39 331.37-25.95 332.62-26.37 333.88-26.78 335.14-27.01 336.4-27.25 337.57-27.25L337.57-27.25Q339.06-27.25 340.35-26.82 341.64-26.39 342.61-25.4 343.57-24.41 344.12-22.81 344.67-21.22 344.67-18.9L344.67-18.9Q344.67-18.31 344.65-17.69 344.62-17.07 344.55-16.41L344.55-16.41 343.5-6.42Q343.38-5.4 343.35-4.28 343.33-3.17 343.33-2L343.33-2Q343.33-1.81 343.34-1.67 343.35-1.54 343.35-1.44L343.35-1.44Q343.35-1.22 343.17-1.1 342.99-0.98 342.35-0.78L342.35-0.78 336.37 0.88Q336.1 0.95 335.66 1.11 335.22 1.27 334.81 1.27L334.81 1.27Q334.39 1.27 334.17 1.09 333.95 0.9 333.95 0.37L333.95 0.37Q334.13-1.46 334.24-2.59 334.35-3.71 334.41-4.38 334.47-5.05 334.52-5.41 334.56-5.76 334.59-6.04 334.61-6.32 334.66-6.68 334.71-7.03 334.77-7.71 334.83-8.4 334.94-9.52 335.05-10.64 335.22-12.48L335.22-12.48Q335.32-13.45 335.43-14.42 335.54-15.38 335.54-16.19L335.54-16.19Q335.54-17.21 335.43-18.05 335.32-18.9 335.04-19.49 334.76-20.09 334.27-20.43 333.78-20.78 333.03-20.78L333.03-20.78Q332.47-20.78 331.5-20.53 330.54-20.29 329.57-19.73 328.61-19.17 327.86-18.25 327.12-17.33 327.02-15.99L327.02-15.99Q326.83-14.11 326.72-12.92 326.61-11.72 326.53-10.94 326.46-10.16 326.42-9.69 326.39-9.23 326.36-8.84L326.36-8.84Q326.34-8.72 326.29-8.24 326.24-7.76 326.17-7.1 326.09-6.45 326.02-5.7 325.95-4.96 325.89-4.3 325.82-3.64 325.79-3.16 325.75-2.69 325.75-2.56L325.75-2.56Q325.75-2.37 325.76-2.23 325.78-2.1 325.78-1.98L325.78-1.98Q325.78-1.78 325.59-1.65 325.41-1.51 324.77-1.34L324.77-1.34 318.4 0.88Q318.13 0.98 317.69 1.12 317.26 1.27 316.84 1.27L316.84 1.27Q316.47 1.27 316.23 1.06 315.99 0.85 315.99 0.37L315.99 0.37ZM349.04-10.35L349.04-10.35Q349.36-13.7 349.67-16.97 349.99-20.24 350.24-23.68L350.24-23.68Q350.28-24.49 350.39-24.79 350.5-25.1 350.94-25.2L350.94-25.2Q353.02-25.61 355.29-26.06 357.56-26.51 359.68-27.22L359.68-27.22Q359.76-27.25 359.9-27.25L359.9-27.25Q360.17-27.25 360.17-27.05L360.17-27.05 357.98-3.27Q357.9-2.47 357.8-2.16 357.71-1.86 357.27-1.76L357.27-1.76Q355.19-1.12 353.07-0.34 350.94 0.44 348.58 1.25L348.58 1.25Q348.5 1.27 348.36 1.27L348.36 1.27Q348.09 1.27 348.09 1.03L348.09 1.03Q348.09 1 348.14 0.37 348.19-0.27 348.27-1.27 348.36-2.27 348.45-3.52 348.55-4.76 348.66-6.01 348.77-7.25 348.87-8.4 348.97-9.55 349.04-10.35ZM350.87-29.83L350.87-29.83Q350.94-30.88 350.98-31.45 351.02-32.01 351.04-32.29 351.07-32.57 351.07-32.64 351.07-32.71 351.08-32.75 351.09-32.79 351.1-32.9 351.11-33.01 351.14-33.36 351.16-33.72 351.21-34.4 351.26-35.08 351.36-36.28L351.36-36.28Q351.41-37.08 351.52-37.39 351.63-37.7 352.07-37.79L352.07-37.79Q354.14-38.21 356.41-38.66 358.68-39.11 360.81-39.82L360.81-39.82Q360.88-39.84 361.03-39.84L361.03-39.84Q361.1-39.7 361.22-39.65L361.22-39.65 361.3-39.6 360.76-32.91Q360.69-32.1 360.58-31.79 360.47-31.47 360.05-31.4L360.05-31.4Q357.98-31.01 355.85-30.54 353.73-30.08 351.36-29.61L351.36-29.61Q351.29-29.59 351.14-29.59L351.14-29.59Q350.87-29.59 350.87-29.83ZM389.54-0.78L383.61 0.88Q383.34 0.95 382.9 1.11 382.46 1.27 382.05 1.27L382.05 1.27Q381.7 1.27 381.45 1.1 381.19 0.93 381.19 0.51L381.19 0.51 381.19 0.37Q381.34-0.95 381.43-1.87 381.53-2.78 381.62-3.53 381.7-4.27 381.76-5.02 381.83-5.76 381.92-6.75 382.02-7.74 382.15-9.09 382.29-10.45 382.48-12.48L382.48-12.48Q382.61-13.72 382.7-15.01 382.8-16.31 382.8-17.41L382.8-17.41Q382.8-18.14 382.69-18.76 382.58-19.38 382.3-19.84 382.02-20.29 381.53-20.53 381.04-20.78 380.29-20.78L380.29-20.78Q379.73-20.78 378.74-20.53 377.75-20.29 376.77-19.73 375.8-19.17 375.04-18.25 374.28-17.33 374.18-15.99L374.18-15.99Q374.04-14.18 373.92-12.9 373.79-11.62 373.7-10.73 373.6-9.84 373.54-9.28 373.48-8.72 373.45-8.33L373.45-8.33Q373.43-8.23 373.38-7.79 373.33-7.35 373.27-6.74 373.21-6.13 373.15-5.44 373.09-4.76 373.02-4.15 372.96-3.54 372.93-3.1 372.89-2.66 372.89-2.56L372.89-2.56Q372.89-2.37 372.9-2.23 372.91-2.1 372.91-1.98L372.91-1.98Q372.91-1.78 372.73-1.65 372.55-1.51 371.91-1.34L371.91-1.34 365.44 0.88Q365.17 0.98 364.74 1.12 364.3 1.27 363.88 1.27L363.88 1.27Q363.54 1.27 363.28 1.1 363.03 0.93 363.03 0.51L363.03 0.51 365.25-24.44Q365.32-25.24 365.43-25.55 365.54-25.85 365.98-25.95L365.98-25.95Q368.2-26.39 370.55-26.84 372.89-27.29 375.11-28L375.11-28Q375.31-28 375.34-27.94 375.38-27.88 375.38-27.76L375.38-27.76Q375.38-27.71 375.37-27.61 375.36-27.51 375.29-27.17 375.23-26.83 375.12-26.14 375.01-25.44 374.82-24.19L374.82-24.19Q376.5-25.17 377.98-25.77 379.46-26.37 380.76-26.7 382.07-27.03 383.22-27.14 384.36-27.25 385.37-27.25L385.37-27.25Q388.81-27.25 390.37-25.16 391.93-23.07 391.93-18.9L391.93-18.9Q391.93-18.31 391.91-17.69 391.88-17.07 391.81-16.41L391.81-16.41 390.69-5.91Q390.57-4.88 390.54-4.02 390.52-3.15 390.52-2L390.52-2Q390.52-1.81 390.53-1.67 390.54-1.54 390.54-1.44L390.54-1.44Q390.54-1.22 390.36-1.1 390.17-0.98 389.54-0.78L389.54-0.78ZM413.39-17.04L413.41-17.41Q413.17-17.97 412.74-18.55 412.32-19.14 411.75-19.63 411.19-20.12 410.53-20.42 409.87-20.73 409.14-20.73L409.14-20.73Q408.14-20.73 407.26-19.9 406.38-19.07 405.72-17.69 405.07-16.31 404.69-14.54 404.31-12.77 404.31-10.86L404.31-10.86Q404.31-9.69 404.52-8.65 404.72-7.62 405.16-6.84 405.6-6.05 406.3-5.59 406.99-5.13 407.97-5.13L407.97-5.13Q409.44-5.13 410.66-6.04 411.88-6.96 412.73-8.42L412.73-8.42Q412.76-8.94 412.8-9.64 412.85-10.35 412.93-11.36 413-12.38 413.11-13.76 413.22-15.14 413.39-17.04L413.39-17.04ZM424.01-25.71L421.5-2.66Q421.25-0.24 420.4 1.86 419.54 3.96 418.24 5.7 416.93 7.45 415.26 8.83 413.59 10.21 411.72 11.16 409.85 12.11 407.87 12.61 405.9 13.11 403.97 13.11L403.97 13.11Q402.94 13.11 401.87 13.04 400.79 12.96 399.77 12.76 398.74 12.55 397.81 12.17 396.89 11.79 396.15 11.21L396.15 11.21 396.15 11.18Q396.15 11.06 396.34 10.33 396.52 9.59 396.78 8.61 397.03 7.62 397.31 6.57 397.59 5.52 397.79 4.76L397.79 4.76Q397.89 4.42 397.98 4.3 398.08 4.17 398.2 4.17L398.2 4.17Q398.35 4.17 398.38 4.2L398.38 4.2Q399.08 4.66 399.71 4.97 400.33 5.27 401.02 5.46 401.72 5.64 402.55 5.71 403.38 5.79 404.48 5.79L404.48 5.79Q406.19 5.79 407.51 5.13 408.82 4.47 409.78 3.42 410.73 2.37 411.3 1.11 411.88-0.15 412.1-1.37L412.1-1.37Q410.34-0.2 408.53 0.54 406.73 1.27 404.89 1.27L404.89 1.27Q402.38 1.27 400.55 0.26 398.72-0.76 397.52-2.47 396.32-4.17 395.75-6.38 395.18-8.59 395.18-11.01L395.18-11.01Q395.18-12.92 395.53-14.86 395.89-16.8 396.58-18.6 397.28-20.41 398.3-21.98 399.33-23.56 400.67-24.73 402.01-25.9 403.65-26.57 405.28-27.25 407.21-27.25L407.21-27.25Q409.31-27.25 411.11-26.32 412.9-25.39 414.37-24.02L414.37-24.02Q414.42-24.46 414.44-24.72 414.46-24.98 414.56-25.12 414.66-25.27 414.89-25.34 415.12-25.42 415.56-25.51L415.56-25.51Q415.83-25.56 416.54-25.72 417.25-25.88 418.22-26.1 419.2-26.32 420.37-26.56 421.54-26.81 422.74-27.08L422.74-27.08Q423.03-27.15 423.28-27.15L423.28-27.15Q424.03-27.15 424.03-26.17L424.03-26.17Q424.03-26.05 424.03-25.94 424.03-25.83 424.01-25.71L424.01-25.71Z" opacity="1" transform="matrix(1,0,0,1,0,0)" fill="#000000" class="wordmark-text-0" data-fill-palette-color="primary" id="text-0"></path></svg></g></svg></g></svg></g></svg></g></svg></g><defs></defs></svg><rect width="395.52" height="49.683377540974114" fill="none" stroke="none" visibility="hidden"></rect></g></svg></g></svg>