<svg xmlns="http://www.w3.org/2000/svg" version="1.1" xmlns:xlink="http://www.w3.org/1999/xlink" xmlns:svgjs="http://svgjs.dev/svgjs" width="1500" height="1500" viewBox="0 0 1500 1500"><rect width="1500" height="1500" fill="#ffffff"></rect><g transform="matrix(0.6666666666666666,0,0,0.6666666666666666,249.3947815786898,625.0004484971939)"><svg viewBox="0 0 396 99" data-background-color="#ffffff" preserveAspectRatio="xMidYMid meet" height="375" width="1500" xmlns="http://www.w3.org/2000/svg" xmlns:xlink="http://www.w3.org/1999/xlink"><g id="tight-bounds" transform="matrix(1,0,0,1,0.2397956646620969,-0.00017760488876206182)"><svg viewBox="0 0 395.52 99.00035520977752" height="99.00035520977752" width="395.52"><g><svg viewBox="0 0 395.52 99.00035520977752" height="99.00035520977752" width="395.52"><g transform="matrix(1,0,0,1,0,51.48383002147036)"><svg viewBox="0 0 395.52 47.51652518830717" height="47.51652518830717" width="395.52"><g id="textblocktransform"><svg viewBox="0 0 395.52 47.51652518830717" height="47.51652518830717" width="395.52" id="textblock"><g><svg viewBox="0 0 395.52 47.51652518830717" height="47.51652518830717" width="395.52"><g transform="matrix(1,0,0,1,0,0)"><svg width="395.52" viewBox="1.5169100246919565 -14.174079999999996 422.3402594849105 50.73858490271049" height="47.51652518830717" data-palette-color="#d2d6dc"><path d="M20.774 1.142l0.097-0.358c-0.095-0.398-0.245-0.812-0.449-1.244-0.211-0.433-0.47-0.844-0.776-1.233-0.308-0.383-0.656-0.716-1.045-0.999-0.396-0.277-0.833-0.461-1.311-0.551v0c-0.649-0.121-1.312 0.033-1.989 0.463-0.672 0.437-1.308 1.064-1.908 1.881-0.602 0.823-1.131 1.789-1.589 2.898-0.465 1.107-0.813 2.279-1.044 3.518v0c-0.143 0.767-0.209 1.5-0.198 2.201 0.004 0.706 0.103 1.338 0.296 1.897 0.193 0.565 0.487 1.041 0.883 1.426 0.395 0.393 0.913 0.649 1.555 0.769v0c0.95 0.178 1.881 0.04 2.794-0.414 0.904-0.448 1.725-1.099 2.46-1.951v0c0.082-0.331 0.182-0.722 0.301-1.175 0.119-0.453 0.263-1.006 0.432-1.659 0.17-0.653 0.374-1.422 0.615-2.306 0.241-0.891 0.533-1.945 0.876-3.163zM31.761-6.967v0c0.199-0.01 0.377-0.001 0.534 0.028v0c0.498 0.093 0.689 0.448 0.574 1.064v0c-0.016 0.085-0.031 0.164-0.044 0.236-0.012 0.066-0.037 0.146-0.075 0.24v0l-9.266 32.532c-0.028 0.042-0.055 0.129-0.079 0.26v0c-0.012 0.066-0.019 0.122-0.021 0.169 0.005 0.048 0.004 0.089-0.002 0.121v0c-0.027 0.144-0.101 0.249-0.222 0.315-0.122 0.072-0.41 0.123-0.863 0.154v0l-6.752 1.128c-0.187 0.019-0.433 0.051-0.74 0.096-0.308 0.051-0.596 0.051-0.865 0.001v0c-0.223-0.042-0.414-0.125-0.574-0.25-0.152-0.13-0.204-0.323-0.157-0.578v0c0.017-0.092 0.037-0.163 0.06-0.213v0c0.024-0.057 0.088-0.272 0.192-0.645 0.103-0.367 0.229-0.829 0.381-1.384 0.158-0.554 0.332-1.179 0.524-1.876 0.199-0.702 0.397-1.415 0.592-2.137 0.191-0.731 0.386-1.447 0.585-2.149 0.198-0.695 0.372-1.321 0.524-1.876 0.151-0.555 0.278-1.016 0.381-1.384 0.104-0.374 0.168-0.589 0.191-0.645v0c-1.289 0.546-2.568 0.968-3.838 1.266-1.276 0.297-2.514 0.334-3.713 0.109v0c-1.638-0.306-2.991-0.905-4.059-1.796-1.068-0.891-1.887-1.97-2.457-3.236-0.57-1.266-0.909-2.666-1.016-4.199-0.102-1.525-0.005-3.077 0.29-4.656v0c0.235-1.258 0.589-2.498 1.062-3.718 0.466-1.222 1.034-2.377 1.705-3.465 0.67-1.082 1.435-2.072 2.295-2.969 0.858-0.891 1.796-1.628 2.814-2.211 1.019-0.589 2.102-0.997 3.25-1.224 1.142-0.234 2.343-0.234 3.601 0.002v0c1.402 0.262 2.625 0.779 3.668 1.55 1.043 0.771 1.964 1.703 2.763 2.796v0c0.087-0.282 0.156-0.507 0.208-0.674 0.044-0.161 0.108-0.285 0.191-0.371 0.076-0.081 0.198-0.133 0.365-0.155 0.159-0.018 0.386-0.033 0.68-0.046v0c0.182 0.007 0.515 0.001 1-0.017 0.478-0.019 1.049-0.041 1.711-0.066 0.663-0.025 1.392-0.045 2.188-0.059 0.796-0.014 1.601-0.037 2.414-0.068zM43.491 22.323l-8.512-1.363c-0.323-0.052-0.662-0.123-1.019-0.213-0.35-0.09-0.667-0.201-0.949-0.335-0.283-0.133-0.514-0.288-0.695-0.465-0.174-0.176-0.242-0.386-0.203-0.63v0c0.002-0.013 0.012-0.035 0.031-0.066 0.025-0.03 0.04-0.061 0.045-0.094v0l11.253-16.013c-0.671-0.107-1.427-0.215-2.268-0.322-0.833-0.113-1.672-0.224-2.519-0.333-0.84-0.108-1.643-0.216-2.409-0.325-0.759-0.108-1.402-0.204-1.929-0.288v0c-0.165-0.026-0.278-0.095-0.341-0.207-0.062-0.118-0.083-0.243-0.062-0.374v0l0.014-0.089 3.356-5.397c0.195-0.414 0.476-0.656 0.845-0.726 0.376-0.068 0.738-0.074 1.087-0.018v0c2.817 0.451 5.575 0.94 8.272 1.466 2.696 0.533 5.443 1.023 8.241 1.471v0c0.178 0.028 0.35 0.113 0.516 0.255 0.166 0.141 0.237 0.291 0.212 0.449v0c-0.002 0.013-0.028 0.066-0.076 0.16v0l-10.262 15.391c-0.004 0.026 0.035 0.056 0.117 0.09 0.083 0.027 0.193 0.061 0.328 0.103 0.136 0.035 0.27 0.063 0.401 0.084 0.138 0.022 0.253 0.041 0.346 0.056v0c1.014 0.162 1.995 0.296 2.944 0.4 0.949 0.105 1.904 0.234 2.864 0.388v0c0.178 0.028 0.323 0.092 0.436 0.191 0.119 0.1 0.16 0.269 0.121 0.506v0c-0.005 0.033-0.024 0.047-0.057 0.041v0l-4.032 5.826c-0.194 0.286-0.49 0.485-0.885 0.598-0.397 0.119-0.866 0.179-1.406 0.18-0.541 0.008-1.139-0.031-1.795-0.116-0.649-0.077-1.32-0.171-2.01-0.281zM56.01 24.164l0.611-6.619c0.002-0.013 0-0.024-0.005-0.031-0.011-0.015-0.016-0.029-0.015-0.043v0c0.03-0.211 0.157-0.301 0.381-0.27v0c0.145 0.02 0.266 0.094 0.363 0.223v0c0.555 0.704 1.221 1.305 2 1.804 0.772 0.498 1.64 0.815 2.603 0.949v0c0.251 0.035 0.548 0.05 0.893 0.044 0.345-0.012 0.681-0.06 1.009-0.142 0.321-0.083 0.596-0.22 0.825-0.409 0.235-0.189 0.375-0.446 0.42-0.77v0c0.049-0.35 0.005-0.686-0.131-1.008-0.137-0.322-0.337-0.599-0.601-0.831v0c-0.143-0.134-0.396-0.372-0.759-0.712-0.357-0.333-0.745-0.693-1.162-1.081-0.411-0.381-0.801-0.745-1.17-1.092-0.369-0.348-0.624-0.595-0.764-0.743v0c-0.65-0.649-1.147-1.284-1.491-1.905-0.344-0.62-0.586-1.246-0.727-1.878-0.141-0.632-0.198-1.283-0.172-1.953 0.026-0.669 0.091-1.371 0.193-2.103v0c0.158-1.129 0.603-2.147 1.336-3.055 0.734-0.914 1.638-1.679 2.714-2.296 1.076-0.617 2.262-1.061 3.558-1.331 1.296-0.27 2.588-0.315 3.876-0.135v0c1.056 0.148 2.077 0.455 3.062 0.923 0.979 0.46 1.857 1.138 2.634 2.034v0c-0.062 1.021-0.145 2.023-0.248 3.004-0.104 0.982-0.201 2.015-0.292 3.1v0c-0.03 0.211-0.096 0.347-0.198 0.406-0.109 0.059-0.227 0.079-0.352 0.062v0c-0.112-0.016-0.202-0.069-0.271-0.159v0c-0.32-0.408-0.651-0.811-0.992-1.209-0.335-0.397-0.695-0.757-1.081-1.08-0.391-0.331-0.816-0.612-1.275-0.844-0.458-0.239-0.958-0.396-1.499-0.472v0c-0.337-0.047-0.678-0.064-1.023-0.052-0.344 0.006-0.666 0.069-0.965 0.188-0.292 0.114-0.538 0.285-0.738 0.513-0.208 0.234-0.34 0.552-0.396 0.954v0c-0.066 0.469-0.066 0.879-0.001 1.232 0.065 0.352 0.284 0.716 0.656 1.091v0l4.053 3.656c0.74 0.676 1.327 1.32 1.759 1.932 0.427 0.605 0.749 1.192 0.966 1.761 0.216 0.575 0.34 1.131 0.373 1.667 0.026 0.535 0.004 1.057-0.068 1.566v0c-0.202 1.446-0.71 2.674-1.524 3.685-0.82 1.003-1.813 1.796-2.978 2.38-1.158 0.579-2.433 0.963-3.826 1.152-1.393 0.189-2.763 0.19-4.11 0.001v0c-1.03-0.144-2.006-0.388-2.927-0.732-0.927-0.352-1.768-0.809-2.524-1.372zM94.154 1.747v0c1.53 0.178 2.884 0.624 4.063 1.338 1.178 0.721 2.161 1.587 2.949 2.599 0.788 1.011 1.359 2.108 1.711 3.29 0.352 1.182 0.463 2.339 0.331 3.471v0c-0.116 0.993-0.537 1.958-1.263 2.894-0.733 0.935-1.696 1.739-2.888 2.412-1.2 0.679-2.6 1.177-4.201 1.494-1.601 0.324-3.329 0.378-5.184 0.162v0c-0.96-0.112-1.962-0.329-3.005-0.652v0c-0.015 0.703 0.118 1.323 0.398 1.858 0.279 0.543 0.658 1.003 1.138 1.381 0.472 0.384 1.027 0.69 1.665 0.919 0.631 0.228 1.294 0.382 1.99 0.463v0c0.768 0.089 1.521 0.107 2.259 0.052 0.731-0.049 1.437-0.148 2.118-0.297 0.688-0.148 1.353-0.326 1.995-0.533 0.647-0.2 1.258-0.404 1.834-0.612v0c0.15-0.016 0.279-0.031 0.387-0.046 0.108-0.008 0.209-0.006 0.302 0.005v0c0 0-0.018 0.125-0.054 0.376-0.037 0.257-0.082 0.621-0.137 1.092-0.054 0.464-0.123 1.026-0.207 1.687-0.09 0.654-0.188 1.384-0.295 2.191v0c0.037 0.085 0.061 0.168 0.072 0.25 0.004 0.081 0.003 0.148-0.004 0.201v0c-0.022 0.192-0.222 0.38-0.599 0.564-0.384 0.184-0.874 0.361-1.471 0.534-0.598 0.179-1.278 0.338-2.039 0.477-0.755 0.14-1.523 0.259-2.307 0.356-0.776 0.098-1.525 0.158-2.246 0.181-0.72 0.017-1.345-0.006-1.875-0.067v0c-1.735-0.202-3.385-0.699-4.95-1.493-1.565-0.793-2.912-1.826-4.039-3.097-1.134-1.273-1.984-2.758-2.552-4.455-0.574-1.698-0.744-3.553-0.51-5.567v0c0.245-2.106 0.839-4.037 1.782-5.793 0.937-1.763 2.14-3.251 3.61-4.462 1.471-1.218 3.162-2.115 5.075-2.691 1.906-0.577 3.955-0.738 6.147-0.483zM93.119 8.13v0c-0.662-0.077-1.288-0.006-1.877 0.214-0.589 0.22-1.143 0.565-1.661 1.035-0.517 0.463-0.987 1.043-1.41 1.738-0.423 0.696-0.792 1.472-1.107 2.328v0c1.695-0.091 3.108-0.235 4.238-0.433 1.13-0.197 2.046-0.42 2.746-0.667 0.694-0.255 1.2-0.532 1.516-0.83 0.31-0.299 0.483-0.602 0.518-0.906v0c0.034-0.291-0.043-0.579-0.231-0.863-0.188-0.284-0.43-0.54-0.726-0.769-0.302-0.23-0.636-0.42-1.001-0.569-0.365-0.15-0.7-0.243-1.005-0.278zM121.444 4.446v0c1.534 0.139 2.899 0.55 4.095 1.234 1.196 0.691 2.201 1.531 3.015 2.523 0.814 0.991 1.412 2.072 1.795 3.245 0.382 1.173 0.522 2.327 0.419 3.461v0c-0.09 0.996-0.486 1.971-1.188 2.925-0.709 0.953-1.651 1.782-2.826 2.486-1.182 0.71-2.569 1.243-4.161 1.601-1.593 0.365-3.319 0.463-5.178 0.294v0c-0.963-0.087-1.97-0.279-3.02-0.574v0c0.003 0.703 0.152 1.319 0.445 1.847 0.293 0.535 0.684 0.986 1.173 1.351 0.482 0.372 1.044 0.664 1.688 0.876 0.637 0.212 1.304 0.349 2.001 0.412v0c0.77 0.07 1.523 0.068 2.259-0.006 0.729-0.068 1.433-0.185 2.111-0.351 0.684-0.166 1.345-0.36 1.98-0.584 0.642-0.216 1.248-0.436 1.817-0.659v0c0.149-0.02 0.278-0.038 0.387-0.055 0.108-0.01 0.209-0.011 0.301-0.003v0c0 0-0.015 0.126-0.044 0.378-0.03 0.258-0.066 0.623-0.109 1.094-0.042 0.465-0.096 1.029-0.163 1.692-0.073 0.656-0.152 1.389-0.24 2.198v0c0.039 0.084 0.065 0.167 0.078 0.248 0.006 0.081 0.007 0.148 0.002 0.201v0c-0.017 0.193-0.212 0.386-0.584 0.579-0.379 0.193-0.865 0.384-1.458 0.571-0.593 0.194-1.269 0.37-2.026 0.53-0.751 0.16-1.516 0.298-2.296 0.414-0.774 0.117-1.521 0.197-2.241 0.239-0.719 0.035-1.345 0.029-1.876-0.019v0c-1.74-0.157-3.402-0.613-4.987-1.365-1.585-0.753-2.958-1.75-4.117-2.994-1.166-1.244-2.054-2.706-2.665-4.388-0.617-1.683-0.835-3.533-0.652-5.551v0c0.191-2.111 0.735-4.057 1.633-5.837 0.891-1.787 2.056-3.305 3.494-4.553 1.439-1.255 3.107-2.195 5.005-2.82 1.891-0.625 3.935-0.839 6.133-0.64zM120.572 10.854v0c-0.664-0.06-1.288 0.027-1.871 0.262-0.584 0.235-1.128 0.594-1.634 1.077-0.505 0.476-0.96 1.068-1.365 1.774-0.405 0.706-0.754 1.491-1.047 2.355v0c1.692-0.135 3.101-0.315 4.226-0.541 1.125-0.226 2.034-0.472 2.728-0.737 0.687-0.272 1.186-0.562 1.494-0.869 0.302-0.307 0.467-0.614 0.495-0.919v0c0.026-0.292-0.058-0.578-0.254-0.856-0.196-0.279-0.444-0.529-0.745-0.75-0.308-0.222-0.646-0.403-1.015-0.544-0.369-0.141-0.706-0.225-1.012-0.252zM148.002-3.423v0l-1.4 8.359c-0.185 1.131-0.374 2.271-0.566 3.421-0.2 1.156-0.39 2.267-0.571 3.331-0.18 1.057-0.346 2.036-0.496 2.934-0.157 0.899-0.284 1.639-0.38 2.221v0l1.783-1.742 2.915-3.002c0.364-0.364 0.721-0.733 1.071-1.105 0.35-0.365 0.661-0.69 0.934-0.973 0.278-0.283 0.507-0.519 0.686-0.708 0.173-0.196 0.277-0.31 0.312-0.341v0l9.793-0.064c0.047-0.01 0.101-0.014 0.161-0.01 0.053 0.003 0.103 0.007 0.15 0.01v0c0.279 0.018 0.415 0.1 0.405 0.246v0c-0.007 0.113-0.193 0.352-0.556 0.716v0l-8.131 8.014c-0.363 0.351-0.789 0.758-1.279 1.222-0.497 0.463-1.047 0.976-1.651 1.539v0l3.278 4.435 5.703 6.963c0.042 0.083 0.108 0.147 0.198 0.193 0.097 0.046 0.188 0.089 0.272 0.128 0.091 0.039 0.172 0.081 0.243 0.125 0.071 0.045 0.103 0.107 0.098 0.187v0c-0.004 0.067-0.021 0.116-0.049 0.147-0.029 0.032-0.109 0.09-0.241 0.175v0c-0.154 0.104-0.42 0.251-0.8 0.441-0.373 0.19-0.81 0.396-1.311 0.618-0.502 0.229-1.038 0.459-1.607 0.69-0.562 0.232-1.11 0.441-1.643 0.628-0.533 0.187-1.023 0.336-1.471 0.449-0.441 0.106-0.784 0.151-1.03 0.135v0c-0.193-0.012-0.38-0.071-0.56-0.176-0.18-0.112-0.375-0.304-0.585-0.578v0c-0.284-0.372-0.637-0.858-1.06-1.459-0.423-0.608-0.882-1.271-1.378-1.991-0.489-0.719-0.99-1.465-1.502-2.239-0.506-0.767-0.994-1.502-1.464-2.207-0.47-0.704-0.891-1.339-1.262-1.903-0.378-0.572-0.67-1.024-0.877-1.358v0c-0.092 0.074-0.178 0.129-0.261 0.164-0.082 0.035-0.162 0.083-0.239 0.145-0.077 0.055-0.142 0.128-0.194 0.219-0.052 0.084-0.083 0.205-0.093 0.365v0c-0.004 0.067-0.032 0.248-0.085 0.545-0.052 0.297-0.111 0.651-0.177 1.061-0.066 0.41-0.14 0.846-0.223 1.309-0.076 0.469-0.148 0.909-0.213 1.319-0.066 0.41-0.125 0.764-0.178 1.061-0.052 0.297-0.08 0.476-0.083 0.536v0c-0.007 0.113-0.006 0.207 0.002 0.28 0.002 0.074 0.001 0.144-0.003 0.211v0c-0.011 0.18-0.08 0.309-0.205 0.387-0.132 0.079-0.435 0.17-0.909 0.274v0l-6.487 1.655c-0.184 0.055-0.422 0.124-0.715 0.205-0.299 0.075-0.584 0.103-0.857 0.086v0c-0.226-0.014-0.422-0.083-0.588-0.207-0.159-0.124-0.229-0.338-0.21-0.645v0l5.259-34.758c0.005-0.08 0-0.157-0.015-0.231-0.009-0.074-0.011-0.151-0.006-0.231v0c0.009-0.146 0.078-0.276 0.205-0.388 0.127-0.112 0.414-0.211 0.86-0.296v0l6.919-1.197c0.182-0.022 0.419-0.08 0.713-0.175 0.3-0.095 0.586-0.133 0.859-0.116v0c0.213 0.013 0.409 0.076 0.589 0.187 0.18 0.105 0.262 0.297 0.244 0.577v0c-0.002 0.033-0.007 0.063-0.015 0.089-0.015 0.032-0.024 0.065-0.026 0.098zM177.433 7.787v0c1.539 0.058 2.924 0.398 4.154 1.019 1.23 0.627 2.278 1.414 3.143 2.36 0.865 0.947 1.519 1.996 1.962 3.147 0.443 1.151 0.643 2.296 0.6 3.435v0c-0.038 0.999-0.382 1.994-1.033 2.983-0.658 0.989-1.555 1.866-2.692 2.63-1.143 0.771-2.501 1.376-4.072 1.817-1.571 0.447-3.29 0.636-5.155 0.565v0c-0.966-0.037-1.981-0.175-3.046-0.416v0c0.04 0.702 0.221 1.309 0.541 1.822 0.321 0.519 0.735 0.949 1.242 1.288 0.501 0.346 1.078 0.608 1.732 0.786 0.647 0.178 1.32 0.28 2.019 0.307v0c0.773 0.029 1.525-0.012 2.257-0.125 0.725-0.106 1.421-0.26 2.089-0.461 0.675-0.201 1.324-0.43 1.947-0.686 0.63-0.25 1.223-0.501 1.78-0.753v0c0.148-0.028 0.276-0.053 0.383-0.076 0.107-0.016 0.208-0.022 0.301-0.019v0c0 0-0.008 0.126-0.024 0.38-0.017 0.26-0.034 0.626-0.052 1.099-0.018 0.466-0.042 1.032-0.074 1.698-0.038 0.659-0.08 1.395-0.124 2.207v0c0.044 0.082 0.074 0.163 0.091 0.244 0.01 0.08 0.014 0.147 0.012 0.2v0c-0.007 0.193-0.192 0.396-0.553 0.61-0.368 0.213-0.844 0.428-1.426 0.646-0.582 0.225-1.247 0.436-1.995 0.635-0.741 0.199-1.499 0.377-2.272 0.534-0.767 0.158-1.508 0.276-2.225 0.356-0.717 0.073-1.341 0.099-1.875 0.079v0c-1.745-0.066-3.429-0.434-5.052-1.102-1.622-0.669-3.045-1.593-4.268-2.774-1.229-1.181-2.193-2.595-2.891-4.243-0.705-1.648-1.019-3.484-0.942-5.509v0c0.08-2.118 0.522-4.09 1.325-5.914 0.797-1.831 1.881-3.408 3.252-4.73 1.371-1.329 2.988-2.355 4.85-3.079 1.855-0.724 3.886-1.043 6.091-0.96zM176.898 14.232v0c-0.666-0.025-1.285 0.095-1.855 0.36-0.57 0.265-1.096 0.652-1.575 1.161-0.479 0.502-0.903 1.117-1.271 1.843-0.368 0.727-0.675 1.529-0.922 2.407v0c1.683-0.223 3.08-0.477 4.192-0.762 1.112-0.285 2.007-0.578 2.686-0.879 0.672-0.308 1.154-0.623 1.446-0.946 0.286-0.323 0.434-0.637 0.447-0.943v0c0.011-0.293-0.088-0.574-0.299-0.842-0.21-0.268-0.471-0.505-0.783-0.711-0.319-0.206-0.666-0.369-1.043-0.489-0.376-0.121-0.717-0.187-1.023-0.199zM211.772 8.287l-1.615 7.508c-0.34-0.038-0.719-0.08-1.138-0.126-0.419-0.046-0.862-0.072-1.329-0.078v0c-0.713-0.01-1.441 0.04-2.183 0.149-0.742 0.11-1.428 0.34-2.059 0.692-0.638 0.344-1.188 0.827-1.651 1.447-0.462 0.614-0.766 1.416-0.913 2.408v0c-0.13 1.192-0.237 2.174-0.321 2.945-0.077 0.766-0.136 1.395-0.177 1.888-0.04 0.499-0.076 0.899-0.106 1.199-0.031 0.293-0.055 0.569-0.072 0.829v0c-0.001 0.067-0.017 0.246-0.047 0.539-0.024 0.293-0.065 0.632-0.125 1.019-0.052 0.386-0.101 0.805-0.147 1.258-0.046 0.453-0.096 0.875-0.148 1.268-0.059 0.386-0.1 0.725-0.124 1.018-0.031 0.286-0.046 0.463-0.047 0.529v0c-0.002 0.133 0 0.243 0.005 0.331 0.012 0.087 0.018 0.17 0.017 0.25v0c-0.002 0.133-0.067 0.242-0.195 0.327-0.121 0.092-0.393 0.191-0.814 0.299v0l-6.472 2.21c-0.181 0.064-0.415 0.144-0.703 0.24-0.295 0.089-0.582 0.132-0.862 0.128v0c-0.227-0.003-0.422-0.063-0.587-0.178-0.172-0.116-0.256-0.31-0.252-0.583v0l2.425-24.049c0.061-0.533 0.129-0.902 0.205-1.107 0.076-0.199 0.258-0.33 0.545-0.393v0c1.477-0.273 3.005-0.545 4.582-0.816 1.577-0.278 3.106-0.644 4.586-1.096v0c0.127 0.002 0.203 0.023 0.229 0.063 0.026 0.04 0.039 0.101 0.038 0.18v0c0 0.033-0.004 0.083-0.013 0.15-0.014 0.066-0.043 0.213-0.086 0.439-0.043 0.226-0.105 0.569-0.184 1.028-0.08 0.459-0.189 1.101-0.327 1.925v0c0.755-0.57 1.585-1.091 2.492-1.565 0.9-0.474 1.806-0.878 2.717-1.213 0.918-0.341 1.799-0.605 2.642-0.793 0.843-0.188 1.581-0.278 2.214-0.269zM222.425 23.644v0c-0.037-2.12 0.322-4.113 1.076-5.979 0.754-1.873 1.81-3.508 3.166-4.906 1.363-1.404 2.98-2.519 4.853-3.344 1.873-0.826 3.919-1.258 6.139-1.296v0c1.506-0.026 2.798 0.075 3.875 0.303 1.071 0.222 1.949 0.476 2.634 0.764 0.685 0.288 1.19 0.556 1.514 0.804 0.318 0.241 0.476 0.372 0.477 0.392v0c0.002 0.093-0.03 0.364-0.096 0.812-0.066 0.448-0.137 0.969-0.213 1.564-0.083 0.588-0.156 1.196-0.219 1.824-0.056 0.621-0.08 1.158-0.072 1.611v0c0.002 0.087-0.024 0.177-0.075 0.272-0.045 0.101-0.174 0.153-0.387 0.156v0c-0.193 0.003-0.478-0.062-0.854-0.195-0.376-0.134-0.835-0.276-1.377-0.426-0.543-0.151-1.169-0.29-1.878-0.418-0.709-0.121-1.493-0.174-2.353-0.159v0c-1.067 0.018-2.026 0.225-2.88 0.62-0.853 0.395-1.581 0.934-2.182 1.618-0.602 0.677-1.061 1.482-1.379 2.414-0.317 0.926-0.467 1.925-0.448 2.998v0c0.019 1.12 0.209 2.067 0.569 2.841 0.367 0.78 0.845 1.412 1.433 1.895 0.595 0.483 1.275 0.831 2.039 1.045 0.764 0.213 1.566 0.313 2.405 0.299v0c0.973-0.017 1.951-0.167 2.933-0.451 0.989-0.284 1.915-0.677 2.78-1.178v0c0.033-0.014 0.096-0.022 0.189-0.024v0c0.08-0.001 0.144 0.038 0.192 0.117 0.041 0.079 0.064 0.232 0.068 0.459v0c0.009 0.52 0.02 1.15 0.033 1.89 0.013 0.733 0.018 1.437 0.017 2.11 0.005 0.673 0.005 1.243-0.001 1.71-0.012 0.474-0.024 0.711-0.038 0.711v0c-0.58 0.397-1.208 0.724-1.883 0.982-0.676 0.252-1.372 0.457-2.09 0.617-0.717 0.159-1.439 0.268-2.164 0.327-0.732 0.059-1.439 0.095-2.119 0.107v0c-1.893 0.033-3.665-0.25-5.315-0.849-1.644-0.605-3.079-1.474-4.306-2.606-1.226-1.126-2.203-2.489-2.931-4.09-0.721-1.601-1.099-3.382-1.132-5.341zM249.901 14.365v0c0.114-2.225 0.195-4.423 0.244-6.593 0.042-2.176 0.096-4.41 0.16-6.7v0c0.014-0.534 0.054-0.903 0.121-1.105 0.059-0.209 0.234-0.349 0.525-0.419v0c1.496-0.334 2.995-0.668 4.497-1.002 1.509-0.341 3.014-0.772 4.517-1.292v0c0.046-0.022 0.119-0.034 0.219-0.038v0c0.18-0.006 0.273 0.074 0.279 0.24v0l-1.917 34.791 0.015 0.41c0.005 0.147-0.047 0.265-0.157 0.356-0.11 0.097-0.373 0.21-0.789 0.338v0l-6.282 2.556c-0.177 0.086-0.41 0.181-0.701 0.286-0.283 0.097-0.565 0.15-0.844 0.16v0c-0.227 0.008-0.425-0.041-0.596-0.149-0.177-0.107-0.271-0.297-0.281-0.57v0l-0.005-0.15c0.075-1.637 0.144-3.241 0.208-4.811 0.064-1.563 0.136-3.184 0.216-4.86 0.08-1.671 0.167-3.438 0.261-5.303 0.093-1.871 0.197-3.92 0.31-6.145zM277.788 34.831v0c-2.283 0.131-4.304-0.124-6.063-0.764-1.767-0.647-3.268-1.555-4.504-2.727-1.236-1.171-2.193-2.545-2.871-4.122-0.671-1.577-1.057-3.231-1.156-4.962v0c-0.099-1.73 0.089-3.391 0.566-4.981 0.476-1.597 1.188-3.04 2.136-4.329 0.947-1.296 2.109-2.405 3.485-3.325 1.377-0.914 2.915-1.563 4.616-1.947v0c0.252-0.034 0.375-0.098 0.37-0.192v0c-0.01-0.18-0.04-0.345-0.089-0.496-0.049-0.151-0.076-0.283-0.083-0.396v0c-0.01-0.18 0.016-0.305 0.079-0.375 0.063-0.07 0.134-0.108 0.214-0.112v0c3.088-0.177 5.737 0.025 7.948 0.606 2.204 0.581 4.019 1.439 5.446 2.572 1.434 1.133 2.504 2.507 3.211 4.123 0.707 1.615 1.115 3.368 1.223 5.259v0c0.139 2.416-0.141 4.592-0.837 6.528-0.704 1.937-1.717 3.601-3.039 4.992-1.323 1.391-2.899 2.483-4.73 3.277-1.831 0.793-3.805 1.25-5.922 1.371zM272.524 21.461v0c0.05 0.872 0.193 1.732 0.429 2.579 0.229 0.842 0.579 1.599 1.051 2.274 0.466 0.668 1.06 1.198 1.784 1.59 0.717 0.386 1.594 0.55 2.633 0.49v0c0.744-0.076 1.383-0.28 1.918-0.611 0.542-0.332 1.002-0.745 1.381-1.241 0.379-0.502 0.684-1.061 0.916-1.675 0.232-0.614 0.406-1.245 0.522-1.893 0.116-0.648 0.19-1.28 0.222-1.896 0.031-0.616 0.033-1.177 0.004-1.683v0c-0.048-0.839-0.222-1.657-0.522-2.454-0.299-0.791-0.709-1.478-1.23-2.063-0.521-0.591-1.152-1.056-1.893-1.394-0.741-0.338-1.58-0.48-2.518-0.426v0c-0.972 0.056-1.771 0.389-2.397 0.999-0.632 0.617-1.121 1.356-1.465 2.217-0.351 0.862-0.59 1.763-0.717 2.706-0.12 0.942-0.159 1.769-0.118 2.481zM312.394 12.248l-4.505 0.376c-0.084 1.72-0.156 3.431-0.214 5.135-0.059 1.697-0.054 3.286 0.015 4.765v0c0.052 0.625 0.146 1.145 0.281 1.562 0.128 0.411 0.295 0.728 0.501 0.952 0.206 0.23 0.443 0.385 0.711 0.463 0.268 0.085 0.565 0.114 0.89 0.086v0c0.518-0.043 1.077-0.167 1.675-0.37 0.598-0.204 1.197-0.451 1.794-0.742v0c0.185-0.102 0.343-0.179 0.473-0.23 0.136-0.051 0.254-0.081 0.354-0.089v0c0.159-0.013 0.272 0.051 0.337 0.192 0.072 0.141 0.15 0.392 0.233 0.753 0.09 0.354 0.217 0.835 0.381 1.444 0.164 0.602 0.414 1.36 0.752 2.275v0c0.02 0.079 0.036 0.148 0.047 0.207 0.018 0.052 0.029 0.101 0.033 0.148v0c0.019 0.226-0.054 0.396-0.219 0.51-0.158 0.113-0.427 0.25-0.809 0.408v0c-0.639 0.281-1.317 0.568-2.035 0.862-0.711 0.3-1.42 0.577-2.129 0.83-0.701 0.252-1.376 0.466-2.023 0.64-0.654 0.175-1.231 0.283-1.729 0.325v0c-2.697 0.225-4.719-0.279-6.067-1.512-1.348-1.239-2.136-3.231-2.364-5.974v0c-0.039-0.472-0.063-0.955-0.071-1.45-0.008-0.494-0.01-1.009-0.008-1.544v0c0.025-1.628 0.04-3.171 0.046-4.63-0.001-1.452 0.007-2.844 0.023-4.176v0l-2.541 0.211c-0.87 0.072-1.501 0.088-1.892 0.048-0.398-0.04-0.607-0.174-0.626-0.4v0c-0.006-0.066 0.063-0.246 0.206-0.539 0.136-0.299 0.313-0.655 0.533-1.068 0.213-0.419 0.446-0.867 0.701-1.343 0.255-0.476 0.498-0.925 0.731-1.345 0.233-0.414 0.434-0.775 0.602-1.084 0.168-0.308 0.273-0.494 0.315-0.558v0l1.724-0.143c0.044-1.241 0.074-2.281 0.092-3.119 0.024-0.838 0.039-1.535 0.046-2.091 0.014-0.556 0.032-0.986 0.053-1.289 0.022-0.296 0.057-0.52 0.105-0.671 0.041-0.151 0.106-0.25 0.196-0.297 0.083-0.047 0.196-0.093 0.34-0.139v0c0.712-0.206 1.402-0.398 2.069-0.573 0.667-0.183 1.334-0.365 2.002-0.548 0.667-0.183 1.346-0.39 2.035-0.621 0.69-0.225 1.405-0.482 2.144-0.771v0c0.047-0.004 0.079-0.013 0.098-0.028 0.013-0.008 0.042-0.014 0.088-0.018v0c0.199-0.017 0.304 0.042 0.316 0.175v0l0.003 0.04c-0.012 0.897-0.036 2.144-0.07 3.738-0.041 1.596-0.081 3.405-0.119 5.429v0l6.487-0.54c0.133-0.011 0.263 0.022 0.39 0.098 0.127 0.076 0.199 0.221 0.216 0.433v0c0.007 0.08-0.066 0.377-0.216 0.891-0.151 0.521-0.372 1.198-0.664 2.032v0l-0.703 2.036c-0.092 0.255-0.197 0.445-0.314 0.568-0.11 0.123-0.35 0.213-0.72 0.27zM319.393 30.747l-1.063-35.781c-0.011-0.099-0.027-0.188-0.049-0.267-0.015-0.079-0.027-0.158-0.035-0.237v0c-0.016-0.146 0.027-0.278 0.128-0.396 0.101-0.118 0.365-0.257 0.79-0.417v0l6.616-2.351c0.169-0.045 0.394-0.14 0.674-0.284 0.28-0.144 0.555-0.231 0.827-0.26v0c0.563-0.061 0.873 0.164 0.927 0.675v0c0.004 0.033 0.016 0.367 0.038 1.002 0.021 0.635 0.043 1.424 0.063 2.366 0.014 0.944 0.034 1.971 0.06 3.082 0.02 1.118 0.037 2.179 0.051 3.182 0.008 1.012 0.013 1.896 0.014 2.654 0.001 0.758-0.013 1.252-0.042 1.483v0c0.717-0.5 1.467-0.979 2.249-1.439 0.782-0.46 1.573-0.87 2.372-1.23 0.799-0.368 1.604-0.672 2.416-0.914 0.812-0.242 1.606-0.404 2.382-0.488v0c0.981-0.106 1.914-0.062 2.8 0.132 0.885 0.186 1.681 0.573 2.388 1.161 0.706 0.581 1.295 1.379 1.766 2.395 0.478 1.015 0.799 2.288 0.964 3.818v0c0.041 0.384 0.074 0.783 0.099 1.197 0.031 0.412 0.047 0.84 0.047 1.282v0l0.019 9.995c-0.007 0.685 0.023 1.396 0.089 2.133 0.059 0.731 0.13 1.485 0.213 2.26v0c0.014 0.126 0.029 0.235 0.045 0.327 0.023 0.085 0.037 0.16 0.045 0.227v0c0.015 0.139-0.036 0.259-0.153 0.358-0.111 0.092-0.368 0.224-0.772 0.395v0l-5.74 2.277c-0.173 0.072-0.4 0.177-0.68 0.315-0.281 0.131-0.557 0.211-0.829 0.24v0c-0.272 0.029-0.487-0.008-0.646-0.112-0.159-0.104-0.257-0.334-0.295-0.692v0c-0.017-1.218-0.029-2.203-0.036-2.953-0.006-0.744-0.013-1.34-0.022-1.788-0.008-0.448-0.008-0.79 0.001-1.026 0.008-0.236 0.009-0.447 0.002-0.634 0-0.188 0.004-0.403 0.011-0.645 0.002-0.235 0.001-0.58-0.001-1.036-0.009-0.455-0.017-1.058-0.023-1.808-0.013-0.743-0.028-1.727-0.046-2.952v0c-0.003-0.65-0.002-1.297 0.002-1.941 0.004-0.644-0.022-1.231-0.079-1.762v0c-0.073-0.676-0.176-1.289-0.308-1.837-0.133-0.549-0.313-1.009-0.541-1.38-0.228-0.378-0.514-0.662-0.856-0.854-0.349-0.19-0.772-0.259-1.269-0.205v0c-0.371 0.04-0.866 0.174-1.486 0.401-0.619 0.234-1.226 0.571-1.822 1.011-0.597 0.433-1.108 0.981-1.533 1.643-0.426 0.656-0.624 1.428-0.596 2.317v0c0.007 1.253 0.017 2.281 0.03 3.085 0.012 0.797 0.019 1.453 0.021 1.969 0.009 0.522 0.017 0.937 0.023 1.244 0.013 0.307 0.023 0.591 0.031 0.852v0c-0.005 0.081-0.007 0.282-0.005 0.604 0 0.315 0.001 0.694 0.001 1.136 0 0.436 0 0.905 0.001 1.408 0.006 0.495 0.013 0.961 0.02 1.396 0.007 0.442 0.014 0.82 0.021 1.134 0.014 0.32 0.026 0.52 0.034 0.6v0c0.014 0.126 0.029 0.235 0.046 0.327 0.016 0.085 0.028 0.168 0.036 0.248v0c0.014 0.133-0.034 0.248-0.143 0.347-0.11 0.099-0.371 0.228-0.784 0.386v0l-6.067 2.876c-0.172 0.086-0.395 0.193-0.669 0.323-0.282 0.124-0.558 0.201-0.83 0.23v0c-0.245 0.026-0.455-0.018-0.628-0.133-0.174-0.122-0.279-0.346-0.314-0.671zM351.04 16.483v0c-0.083-2.228-0.159-4.433-0.228-6.616-0.069-2.176-0.172-4.408-0.31-6.696v0c-0.036-0.533-0.031-0.907 0.015-1.121 0.047-0.208 0.208-0.363 0.484-0.467v0c1.333-0.45 2.727-0.921 4.182-1.413 1.455-0.493 2.85-1.061 4.184-1.706v0c0.05-0.027 0.122-0.046 0.215-0.059v0c0.178-0.023 0.276 0.031 0.293 0.164v0l0.892 23.744c0.024 0.541 0.015 0.916-0.025 1.123-0.04 0.207-0.198 0.362-0.473 0.465v0c-1.314 0.595-2.635 1.242-3.963 1.939-1.334 0.699-2.743 1.414-4.227 2.146v0c-0.051 0.02-0.123 0.036-0.216 0.048v0c-0.178 0.023-0.278-0.044-0.299-0.203v0c-0.002-0.013-0.014-0.234-0.036-0.661-0.021-0.421-0.048-0.962-0.081-1.623-0.027-0.669-0.064-1.417-0.111-2.244-0.041-0.828-0.079-1.657-0.113-2.487-0.034-0.829-0.068-1.625-0.1-2.387-0.039-0.761-0.066-1.41-0.083-1.946zM350.335-2.979v0c-0.044-0.7-0.077-1.237-0.1-1.611-0.022-0.374-0.038-0.654-0.049-0.84-0.011-0.187-0.019-0.303-0.026-0.35-0.006-0.046-0.004-0.084 0.006-0.112 0.003-0.027 0.004-0.074 0.002-0.141-0.003-0.074-0.01-0.231-0.021-0.471-0.017-0.233-0.038-0.577-0.064-1.031-0.026-0.454-0.057-1.078-0.094-1.873v0c-0.043-0.532-0.041-0.906 0.005-1.12 0.047-0.208 0.211-0.364 0.494-0.468v0c1.333-0.45 2.727-0.921 4.182-1.414 1.455-0.493 2.85-1.061 4.184-1.706v0c0.044-0.026 0.115-0.045 0.215-0.058v0c0.059 0.093 0.131 0.151 0.214 0.174v0l0.084 0.029 0.327 6.674c0.024 0.541 0.012 0.919-0.033 1.134-0.045 0.221-0.2 0.372-0.465 0.454v0c-1.335 0.436-2.68 0.898-4.035 1.384-1.362 0.487-2.799 0.984-4.313 1.491v0c-0.05 0.027-0.122 0.046-0.215 0.058v0c-0.178 0.023-0.278-0.044-0.298-0.203zM392.441 20.051l-5.585 2.518c-0.17 0.08-0.392 0.194-0.666 0.344-0.275 0.143-0.548 0.235-0.818 0.276v0c-0.224 0.034-0.43 0.008-0.619-0.078-0.182-0.087-0.293-0.266-0.334-0.536v0l-0.022-0.148c-0.032-0.878-0.064-1.622-0.097-2.231-0.025-0.61-0.049-1.163-0.07-1.658-0.015-0.497-0.039-0.992-0.074-1.486-0.035-0.494-0.068-1.072-0.101-1.735-0.032-0.656-0.073-1.435-0.123-2.338-0.05-0.903-0.109-2.03-0.18-3.381v0c-0.045-0.829-0.099-1.671-0.161-2.524-0.07-0.859-0.16-1.651-0.27-2.377v0c-0.073-0.481-0.176-0.917-0.31-1.308-0.135-0.398-0.313-0.731-0.536-1.001-0.23-0.269-0.518-0.461-0.867-0.576-0.347-0.109-0.768-0.126-1.262-0.051v0c-0.369 0.056-0.865 0.212-1.486 0.468-0.627 0.264-1.233 0.629-1.816 1.095-0.584 0.46-1.077 1.03-1.48 1.712-0.41 0.676-0.578 1.457-0.504 2.342v0c0.081 1.201 0.147 2.23 0.196 3.086 0.048 0.849 0.084 1.572 0.107 2.168 0.023 0.597 0.043 1.082 0.06 1.458 0.016 0.369 0.036 0.682 0.062 0.941v0c-0.01 0.069-0.009 0.251 0.002 0.546 0.011 0.295 0.027 0.643 0.047 1.045 0.022 0.408 0.047 0.839 0.075 1.293 0.029 0.454 0.054 0.885 0.075 1.294 0.022 0.408 0.041 0.756 0.058 1.043 0.024 0.293 0.041 0.472 0.051 0.538v0c0.019 0.125 0.039 0.233 0.06 0.325 0.02 0.085 0.035 0.167 0.047 0.246v0c0.02 0.132-0.023 0.25-0.128 0.353-0.106 0.104-0.358 0.243-0.756 0.418v0l-6.035 3.153c-0.168 0.093-0.389 0.211-0.664 0.353-0.276 0.136-0.549 0.225-0.82 0.267v0c-0.224 0.034-0.427 0.008-0.609-0.08-0.188-0.086-0.303-0.264-0.344-0.534v0l-1.544-24.881c-0.035-0.541-0.031-0.916 0.011-1.124 0.042-0.209 0.204-0.368 0.483-0.478v0c1.413-0.511 2.864-1.032 4.355-1.562 1.497-0.531 2.939-1.138 4.326-1.82v0c0.125-0.019 0.204-0.011 0.236 0.024 0.032 0.036 0.055 0.093 0.067 0.172v0c0.005 0.033 0.006 0.083 0.003 0.152 0.002 0.06 0.001 0.206-0.005 0.435-0.005 0.23-0.009 0.581-0.012 1.054-0.003 0.466-0.006 1.117-0.006 1.953v0c1.004-0.807 1.96-1.481 2.868-2.024 0.91-0.536 1.777-0.978 2.6-1.325 0.824-0.348 1.609-0.615 2.357-0.803 0.74-0.187 1.437-0.33 2.089-0.429v0c2.261-0.343 4.009 0.092 5.246 1.307 1.23 1.216 2.053 3.191 2.468 5.927v0c0.058 0.382 0.112 0.779 0.16 1.189 0.042 0.412 0.073 0.838 0.094 1.28v0l0.462 10.5c0.023 0.684 0.071 1.311 0.144 1.88 0.067 0.576 0.158 1.24 0.272 1.991v0c0.019 0.125 0.039 0.233 0.06 0.325 0.026 0.084 0.044 0.158 0.054 0.225v0c0.021 0.138-0.025 0.26-0.137 0.364-0.107 0.097-0.358 0.24-0.754 0.428zM413.302-0.15l-0.047-0.368c-0.224-0.339-0.512-0.672-0.864-1.001-0.345-0.33-0.73-0.622-1.156-0.877-0.425-0.248-0.872-0.434-1.342-0.558-0.462-0.119-0.933-0.135-1.411-0.048v0c-0.656 0.12-1.219 0.504-1.691 1.152-0.479 0.643-0.85 1.453-1.112 2.429-0.268 0.984-0.421 2.076-0.46 3.276-0.032 1.199 0.065 2.421 0.293 3.667v0c0.139 0.761 0.336 1.47 0.591 2.128 0.261 0.65 0.582 1.205 0.965 1.664 0.374 0.454 0.819 0.793 1.334 1.018 0.508 0.219 1.079 0.271 1.715 0.154v0c0.958-0.175 1.782-0.633 2.474-1.376 0.684-0.748 1.217-1.648 1.601-2.701v0c-0.048-0.337-0.098-0.741-0.15-1.213-0.051-0.465-0.114-1.033-0.189-1.703-0.068-0.672-0.148-1.464-0.24-2.376-0.093-0.918-0.197-2.007-0.311-3.267zM422.152-10.537l1.647 23.019c0.131 1.609 0.043 3.15-0.265 4.622-0.307 1.472-0.784 2.854-1.43 4.144-0.644 1.297-1.429 2.494-2.354 3.59-0.93 1.105-1.948 2.08-3.055 2.926-1.107 0.839-2.277 1.54-3.509 2.104-1.226 0.562-2.468 0.958-3.728 1.188v0c-0.669 0.122-1.359 0.224-2.068 0.306-0.711 0.076-1.413 0.109-2.107 0.1-0.694-0.016-1.369-0.093-2.024-0.231-0.648-0.133-1.246-0.349-1.795-0.648v0l-0.004-0.02c-0.014-0.079-0.006-0.368 0.025-0.869 0.037-0.501 0.079-1.089 0.126-1.761 0.052-0.68 0.104-1.378 0.157-2.092 0.058-0.722 0.108-1.341 0.149-1.857v0c0.025-0.235 0.06-0.397 0.105-0.486 0.051-0.091 0.116-0.143 0.195-0.158v0c0.098-0.018 0.155-0.022 0.17-0.011v0c0.521 0.217 1.003 0.39 1.447 0.519 0.443 0.123 0.901 0.202 1.375 0.237 0.474 0.036 0.988 0.03 1.542-0.017 0.546-0.052 1.18-0.144 1.901-0.275v0c1.115-0.203 2.063-0.6 2.843-1.19 0.781-0.583 1.421-1.276 1.918-2.078 0.499-0.796 0.86-1.638 1.085-2.525 0.223-0.895 0.334-1.752 0.334-2.572v0c-1.008 0.977-2.059 1.809-3.154 2.496-1.093 0.694-2.237 1.15-3.43 1.368v0c-1.64 0.299-3.119 0.23-4.439-0.207-1.314-0.445-2.464-1.153-3.447-2.126-0.985-0.979-1.795-2.153-2.432-3.521-0.637-1.375-1.1-2.852-1.387-4.433v0c-0.226-1.24-0.34-2.516-0.343-3.83-0.001-1.308 0.12-2.594 0.363-3.858 0.237-1.263 0.597-2.467 1.08-3.612 0.481-1.152 1.091-2.191 1.83-3.119 0.734-0.92 1.595-1.697 2.584-2.332 0.989-0.634 2.113-1.066 3.372-1.296v0c1.371-0.25 2.695-0.18 3.972 0.211 1.285 0.396 2.488 0.952 3.608 1.67v0c-0.02-0.295-0.038-0.525-0.055-0.692-0.011-0.174 0.003-0.316 0.045-0.425 0.049-0.104 0.144-0.192 0.287-0.265 0.141-0.08 0.351-0.176 0.628-0.288v0c0.171-0.065 0.477-0.192 0.917-0.381 0.447-0.19 0.975-0.415 1.584-0.675 0.61-0.26 1.284-0.539 2.023-0.836 0.732-0.296 1.472-0.604 2.221-0.924v0c0.188-0.082 0.361-0.137 0.518-0.165v0c0.492-0.09 0.796 0.184 0.912 0.819v0c0.014 0.079 0.028 0.154 0.041 0.227 0.013 0.072 0.02 0.149 0.022 0.229z" opacity="1" transform="matrix(1,0,0,1,0,0)" fill="#d2d6dc" class="wordmark-text-0" data-fill-palette-color="primary" id="text-0"></path></svg></g></svg></g></svg></g></svg></g><g transform="matrix(1,0,0,1,177.1313038332296,0)"><svg viewBox="0 0 41.25739233354078 47.51652518830717" height="47.51652518830717" width="41.25739233354078"><g><svg xmlns="http://www.w3.org/2000/svg" xmlns:xlink="http://www.w3.org/1999/xlink" version="1.1" x="0" y="0" viewBox="0.9998770154774217 -21.037999784520295 98.506461676093 113.45081457409172" enable-background="new 0 -25.366 100 125.366" xml:space="preserve" height="47.51652518830717" width="41.25739233354078" class="icon-icon-0" data-fill-palette-color="accent" id="icon-0"><circle cx="67.074" cy="-10.197" r="11" fill="#d2d6dc" data-fill-palette-color="accent"></circle><g fill="#d2d6dc" data-fill-palette-color="accent"><path d="M97.039 35.994c0 0 0.061 0.031 0.147 0.076C97.136 36.044 97.095 36.023 97.039 35.994z" fill="#d2d6dc" data-fill-palette-color="accent"></path><path d="M97.039 35.994l-15.335-7.878L72.885 8.339c-1.962-5.851-9.009-8.308-14.017-4.302-1.236 0.989-1.621 1.719-2.159 2.523-7.152 10.693-14.381 21.324-21.62 31.959-0.875 1.286-1.649 3.154-0.516 5.334l-8.143 15.444C25 52.082 14.101 49.91 10.925 56.519l-7.54 16.478c-0.815 1.697-1.412 4.083-0.548 5.237-1.98 0.479-2.598 2.793-0.657 3.802 2.379 1.236 12.722 7.361 15.036 3.142l20.411-39.526c1.938 0.577 4.076-0.188 5.211-1.856l8.599-12.632-4.243 33.072-10.86 19.379c-3.692 6.587 5.546 12.293 9.221 5.729 3.368-6.01 7.736-12.02 11.105-18.029 2.911-5.195 2.896-11.354 3.646-17.199l16.206 35.002c3.179 6.864 12.798 1.916 9.633-4.924L68.519 43.965c1.676-5.208 1.762-11.287 2.546-16.69l2.823 6.33c0.934 2.095 3.613 2.892 5.554 3.889 3.001 1.541 6.002 3.082 9.003 4.624 1.67 0.857 3.51 2.162 5.368 2.605C99.044 45.971 101.829 38.454 97.039 35.994z" fill="#d2d6dc" data-fill-palette-color="accent"></path></g><circle cx="11.322" cy="89.788" r="2.4" fill="#d2d6dc" data-fill-palette-color="accent"></circle></svg></g></svg></g><g></g></svg></g><defs></defs></svg><rect width="395.52" height="99.00035520977752" fill="none" stroke="none" visibility="hidden"></rect></g></svg></g></svg>